<svg xmlns="http://www.w3.org/2000/svg" width="123.499" height="114" viewBox="0 0 123.499 114">
  <g id="noun-graph-5621669" transform="translate(-122.503 -70)" opacity="0.71">
    <path id="Path_8079" data-name="Path 8079" d="M241.252,174.5H142.786A10.877,10.877,0,0,1,132,163.575V74.75a4.75,4.75,0,1,0-9.5,0v88.825A20.379,20.379,0,0,0,142.786,184h98.466a4.75,4.75,0,1,0,0-9.5Z" transform="translate(0 0)" fill="#c2c2c2"/>
    <path id="Path_8080" data-name="Path 8080" d="M299.1,93.7a4.756,4.756,0,1,0-6.459-6.983L267.61,109.757a4.751,4.751,0,0,1-6.46,0l-5.89-5.367a14.249,14.249,0,0,0-19.523,0l-23.75,22.848h0a4.754,4.754,0,0,0,6.555,6.888l23.75-22.9h0a4.749,4.749,0,0,1,6.507,0l5.938,5.462a14.251,14.251,0,0,0,19.285,0Z" transform="translate(-64.121 -11.257)" fill="#c2c2c2"/>
    <path id="Path_8081" data-name="Path 8081" d="M210,319.75V334a4.75,4.75,0,1,0,9.5,0V319.75a4.75,4.75,0,1,0-9.5,0Z" transform="translate(-63.748 -178.5)" fill="#c2c2c2"/>
    <path id="Path_8082" data-name="Path 8082" d="M313.98,262.5a4.749,4.749,0,0,0-4.75,4.75v28.5a4.75,4.75,0,1,0,9.5,0v-28.5a4.751,4.751,0,0,0-4.75-4.75Z" transform="translate(-136.044 -140.25)" fill="#c2c2c2"/>
    <path id="Path_8083" data-name="Path 8083" d="M408.27,249.75V283a4.75,4.75,0,1,0,9.5,0V249.75a4.75,4.75,0,1,0-9.5,0Z" transform="translate(-208.202 -127.5)" fill="#c2c2c2"/>
    <path id="Path_8084" data-name="Path 8084" d="M512.25,249.5a4.75,4.75,0,0,0,4.75-4.75v-47.5a4.75,4.75,0,1,0-9.5,0v47.5a4.749,4.749,0,0,0,4.75,4.75Z" transform="translate(-280.498 -89.25)" fill="#c2c2c2"/>
  </g>
</svg>
