<svg xmlns="http://www.w3.org/2000/svg" width="29.123" height="31.552" viewBox="0 0 29.123 31.552">
  <path id="Path_8088" data-name="Path 8088" d="M140.463,47.413a6.051,6.051,0,0,0-5.1,2.806l-6.5-3.714a5.7,5.7,0,0,0,.393-4.476l6.761-3.863a6.361,6.361,0,1,0-1.337-2.356l-6.76,3.861a6.073,6.073,0,1,0-.782,8.91l7.324,4.244a5.781,5.781,0,0,0-.067.656,6.068,6.068,0,1,0,6.068-6.068Zm0-16.989a3.64,3.64,0,1,1-3.64,3.64A3.64,3.64,0,0,1,140.463,30.424ZM123.474,47.413a3.64,3.64,0,1,1,3.64-3.64A3.64,3.64,0,0,1,123.474,47.413Zm16.988,9.709a3.641,3.641,0,1,1,3.641-3.641A3.64,3.64,0,0,1,140.462,57.121Z" transform="translate(-117.408 -27.997)" fill="#4369d9"/>
</svg>
