<svg xmlns="http://www.w3.org/2000/svg" width="44.815" height="40" viewBox="0 0 44.815 40">
  <g id="Group_383" data-name="Group 383" transform="translate(-16201.068 -6764)">
    <path id="Path_6733" data-name="Path 6733" d="M159.6,417.035a2.644,2.644,0,0,0,2.636,2.636h39.543a2.636,2.636,0,1,0,0-5.272H162.236a2.644,2.644,0,0,0-2.636,2.636Z" transform="translate(16041.469 6384.33)" fill="#fff"/>
    <path id="Path_6734" data-name="Path 6734" d="M205.77,133.657a2.7,2.7,0,0,0,2.636-2.75V105.738l11.8,10.59a2.862,2.862,0,0,0,1.713.688,2.626,2.626,0,0,0,1.977-.963,2.872,2.872,0,0,0-.263-3.851l-16.147-14.51a2.525,2.525,0,0,0-3.427,0l-16.147,14.441a2.746,2.746,0,0,0-.263,3.851,2.541,2.541,0,0,0,3.691.275l11.8-10.521v25.1a2.721,2.721,0,0,0,2.636,2.82Z" transform="translate(16017.311 6666.978)" fill="#fff"/>
  </g>
</svg>
