<svg xmlns="http://www.w3.org/2000/svg" width="50.333" height="60" viewBox="0 0 50.333 60">
  <path id="noun-my-account-3831420" d="M205.909,67.052a2.338,2.338,0,0,0-.565-1.542,2.252,2.252,0,0,0-1.429-.767c-10.85-1.27-16.808-4.388-21.293-11.107a2.24,2.24,0,0,0-3.692,0c-4.983,6.651-11.122,9.907-21.36,11.131a2.252,2.252,0,0,0-1.429.767,2.336,2.336,0,0,0-.565,1.542v8.66a39.127,39.127,0,0,0,2.9,15.028,38.515,38.515,0,0,0,8.424,12.683c3.012,3.233,8.947,6.466,12.595,8.867a2.229,2.229,0,0,0,2.4,0c3.624-2.425,9.514-5.589,12.5-8.775h0a38.433,38.433,0,0,0,8.5-12.664,39.052,39.052,0,0,0,2.959-15.047ZM186.474,104l-5.731,3.649a74.535,74.535,0,0,1-9.786-6.7,7.5,7.5,0,0,1,1.757-3.8,7.276,7.276,0,0,1,3.5-2.224,2.26,2.26,0,0,0,1.049-.623,2.329,2.329,0,0,0,.582-1.086c.5-2.009-2.265-2.887-1.971-4.849V81.138a3.5,3.5,0,0,1,1-2.4,3.365,3.365,0,0,1,2.357-1.014h3.081a3.344,3.344,0,0,1,2.335,1.024,3.473,3.473,0,0,1,.972,2.394v7.228c.249,1.986-2.446,2.818-1.948,4.826h0a2.325,2.325,0,0,0,.568,1.094,2.261,2.261,0,0,0,1.041.638,7.185,7.185,0,0,1,3.509,2.237A7.405,7.405,0,0,1,190.505,101a28.659,28.659,0,0,1-4.032,3.048Zm14.9-28.265a34.529,34.529,0,0,1-7.317,21.407,11.958,11.958,0,0,0-4.711-5.427c1.269-2.125.589-8.221.747-10.622a8.094,8.094,0,0,0-2.286-5.673,7.785,7.785,0,0,0-5.551-2.363H179.18a7.806,7.806,0,0,0-5.574,2.354,8.115,8.115,0,0,0-2.309,5.682c.181,2.425-.521,8.452.77,10.622h0a12.046,12.046,0,0,0-4.689,5.38,34.531,34.531,0,0,1-7.271-21.361v-6.7c9.061-1.409,15.517-4.618,20.568-10.391,4.757,5.842,11.032,8.983,20.7,10.391Z" transform="translate(-155.576 -52.664)" fill="#797a81"/>
</svg>
