<svg xmlns="http://www.w3.org/2000/svg" width="104" height="83.212" viewBox="0 0 104 83.212">
  <path id="noun-camera-5616894" d="M190.159,108.932l-.845-4.166a7.805,7.805,0,0,0-7.644-6.235h-26a7.805,7.805,0,0,0-7.644,6.235l-.845,4.166H132.27a10.4,10.4,0,0,0-10.4,10.4V160.94a10.4,10.4,0,0,0,10.4,10.4h72.8a10.4,10.4,0,0,0,10.4-10.4V119.334a10.4,10.4,0,0,0-10.4-10.4Zm-47.231-5.2h-10.66a15.6,15.6,0,0,0-15.6,15.6V160.94a15.6,15.6,0,0,0,15.6,15.6h72.8a15.6,15.6,0,0,0,15.6-15.6V119.334a15.6,15.6,0,0,0-15.6-15.6h-10.66a13.005,13.005,0,0,0-12.74-10.4h-26A13.006,13.006,0,0,0,142.928,103.732Zm25.74,54.607a20.8,20.8,0,1,0-20.8-20.8A20.8,20.8,0,0,0,168.668,158.339Zm0,5.2a26,26,0,1,0-26-26A26,26,0,0,0,168.668,163.54Zm9.137-41.234a2.6,2.6,0,0,0-2.682,4.455l0,0h0l.034.022c.037.024.1.064.185.122.171.116.428.3.743.542a17.3,17.3,0,0,1,2.329,2.187,11.952,11.952,0,0,1,3.249,7.9,2.6,2.6,0,0,0,5.2,0,17.133,17.133,0,0,0-4.551-11.342,22.53,22.53,0,0,0-3.035-2.851c-.415-.323-.767-.572-1.023-.745-.128-.087-.232-.154-.31-.2l-.094-.058-.03-.019-.011-.007,0,0h0s0,0-1.34,2.228Z" transform="translate(-116.668 -93.33)" fill="#7b7b7b" fill-rule="evenodd"/>
</svg>
