<svg xmlns="http://www.w3.org/2000/svg" width="55.72" height="72" viewBox="0 0 55.72 72">
  <g id="Group_370" data-name="Group 370" transform="translate(-11505.99 -7218)">
    <path id="Path_6695" data-name="Path 6695" d="M276.948,461.183a12.228,12.228,0,0,1-12.214-12.214,6.014,6.014,0,0,1,.032-.716,1.427,1.427,0,0,1,2.831.351,3.042,3.042,0,0,0-.011.364,9.362,9.362,0,1,0,18.723,0,3.036,3.036,0,0,0-.011-.364,1.427,1.427,0,0,1,2.831-.351,6.125,6.125,0,0,1,.032.716,12.23,12.23,0,0,1-12.215,12.214Z" transform="translate(11256.902 6828.817)" fill="#fff"/>
    <path id="Path_6696" data-name="Path 6696" d="M309.237,26.645a1.426,1.426,0,0,1-1.426-1.426V21.893a5.045,5.045,0,1,0-10.09,0v3.268a1.426,1.426,0,0,1-2.853,0V21.893a7.9,7.9,0,1,1,15.8,0v3.325A1.425,1.425,0,0,1,309.237,26.645Z" transform="translate(11231.086 7204.005)" fill="#fff"/>
    <path id="Path_6697" data-name="Path 6697" d="M183.381,126.832a88.4,88.4,0,0,1-21.465-2.269,8.48,8.48,0,0,1-5.893-5.075,7.578,7.578,0,0,1,1.121-7.386l.435-.563a23.293,23.293,0,0,0,4.958-14.325V93.55c0-10.442,9.17-19.1,20.442-19.3a21.406,21.406,0,0,1,14.791,5.518,19.3,19.3,0,0,1,6.457,14.182v3.259a23.293,23.293,0,0,0,4.958,14.325l.434.562a7.577,7.577,0,0,1,1.122,7.386,8.478,8.478,0,0,1-5.894,5.075,88.346,88.346,0,0,1-21.465,2.27Zm-.014-49.939c-.112,0-.223,0-.335,0-9.728.17-17.643,7.641-17.643,16.654v3.663a25.792,25.792,0,0,1-5.49,15.861l-.434.562a5.031,5.031,0,0,0-.754,4.968,5.624,5.624,0,0,0,3.962,3.411,85.385,85.385,0,0,0,20.708,2.175,85.4,85.4,0,0,0,20.708-2.175,5.626,5.626,0,0,0,3.962-3.412,5.03,5.03,0,0,0-.755-4.967l-.434-.562a25.79,25.79,0,0,1-5.49-15.861V93.955a16.734,16.734,0,0,0-5.6-12.3,18.373,18.373,0,0,0-12.4-4.766Z" transform="translate(11350.469 7152.379)" fill="#fff"/>
  </g>
</svg>
