<svg xmlns="http://www.w3.org/2000/svg" width="42.502" height="42.503" viewBox="0 0 42.502 42.503">
  <g id="Group_491" data-name="Group 491" transform="translate(-4812.472 -582)">
    <path id="Path_8089" data-name="Path 8089" d="M197.608,46l-9.6-9.6a1.356,1.356,0,0,0-1.919,0l-5.787,5.787,0,0,0,0L158.331,64.164a1.355,1.355,0,0,0-.371.691L155.53,76.881a1.357,1.357,0,0,0,1.33,1.625,1.316,1.316,0,0,0,.269-.027l12.026-2.431a1.35,1.35,0,0,0,.691-.371l27.762-27.762a1.358,1.358,0,0,0,0-1.919ZM172.724,68.961l-7.676-7.676,16.216-16.216,7.676,7.676Zm-4.508,4.508-9.621,1.945,1.944-9.622,2.59-2.59,7.677,7.677Zm22.643-22.643-7.676-7.676,3.87-3.87,7.677,7.676Z" transform="translate(4656.969 545.996)" fill="#4369d9"/>
  </g>
</svg>
