<svg xmlns="http://www.w3.org/2000/svg" width="59.999" height="60" viewBox="0 0 59.999 60">
  <g id="Group_377" data-name="Group 377" transform="translate(-13635.068 -6870)">
    <path id="Path_6704" data-name="Path 6704" d="M302.29,231.73H315.1v12.962H302.29Z" transform="translate(13356.373 6661.797)" fill="#e64b69"/>
    <path id="Path_6705" data-name="Path 6705" d="M310.242,239.089H297.431l.752.752V226.879l-.752.752h12.812l-.752-.752v12.962a.752.752,0,0,0,1.5,0V226.879a.764.764,0,0,0-.752-.752H297.43a.764.764,0,0,0-.752.752v12.962a.764.764,0,0,0,.752.752h12.812a.753.753,0,0,0,0-1.5Z" transform="translate(13361.232 6666.647)" fill="#e64b69"/>
    <path id="Path_6706" data-name="Path 6706" d="M113.79,231.73H126.6v12.962H113.79Z" transform="translate(13522.032 6661.797)" fill="#e64b69"/>
    <path id="Path_6707" data-name="Path 6707" d="M121.742,239.089H108.931l.752.752V226.879l-.752.752h12.812l-.752-.752v12.962a.752.752,0,0,0,1.5,0V226.879a.764.764,0,0,0-.752-.752H108.93a.764.764,0,0,0-.752.752v12.962a.764.764,0,0,0,.752.752h12.812a.753.753,0,0,0,0-1.5Z" transform="translate(13526.891 6666.647)" fill="#e64b69"/>
    <path id="Path_6708" data-name="Path 6708" d="M490.79,231.73H503.6v12.962H490.79Z" transform="translate(13190.716 6661.797)" fill="#e64b69"/>
    <path id="Path_6709" data-name="Path 6709" d="M498.742,239.089H485.931l.752.752V226.879l-.752.752h12.812l-.752-.752v12.962a.752.752,0,0,0,1.5,0V226.879a.764.764,0,0,0-.752-.752H485.93a.764.764,0,0,0-.752.752v12.962a.764.764,0,0,0,.752.752h12.812a.753.753,0,0,0,0-1.5Z" transform="translate(13195.574 6666.647)" fill="#e64b69"/>
    <path id="Path_6710" data-name="Path 6710" d="M302.29,58.688H315.1V71.65H302.29Z" transform="translate(13356.373 6812.079)" fill="#e64b69"/>
    <path id="Path_6711" data-name="Path 6711" d="M310.242,65.939H297.431l.752.752V53.729l-.752.752h12.812l-.752-.752V66.691a.752.752,0,0,0,1.5,0V53.729a.764.764,0,0,0-.752-.752H297.43a.764.764,0,0,0-.752.752V66.691a.764.764,0,0,0,.752.752h12.812a.753.753,0,0,0,0-1.5Z" transform="translate(13361.232 6817.023)" fill="#e64b69"/>
    <path id="Path_6712" data-name="Path 6712" d="M113.79,58.688H126.6V71.65H113.79Z" transform="translate(13522.032 6812.079)" fill="#e64b69"/>
    <path id="Path_6713" data-name="Path 6713" d="M121.742,65.939H108.931l.752.752V53.729l-.752.752h12.812l-.752-.752V66.691a.752.752,0,0,0,1.5,0V53.729a.764.764,0,0,0-.752-.752H108.93a.764.764,0,0,0-.752.752V66.691a.764.764,0,0,0,.752.752h12.812a.753.753,0,0,0,0-1.5Z" transform="translate(13526.891 6817.023)" fill="#e64b69"/>
    <path id="Path_6714" data-name="Path 6714" d="M490.79,58.688H503.6V71.65H490.79Z" transform="translate(13190.716 6812.079)" fill="#e64b69"/>
    <path id="Path_6715" data-name="Path 6715" d="M498.742,65.939H485.931l.752.752V53.729l-.752.752h12.812l-.752-.752V66.691a.752.752,0,0,0,1.5,0V53.729a.764.764,0,0,0-.752-.752H485.93a.764.764,0,0,0-.752.752V66.691a.764.764,0,0,0,.752.752h12.812a.753.753,0,0,0,0-1.5Z" transform="translate(13195.574 6817.023)" fill="#e64b69"/>
    <path id="Path_6716" data-name="Path 6716" d="M302.29,404.88H315.1v12.962H302.29Z" transform="translate(13356.373 6511.421)" fill="#e64b69"/>
    <path id="Path_6717" data-name="Path 6717" d="M310.242,412.129H297.431l.752.752V399.919l-.752.752h12.812l-.752-.752v12.962a.752.752,0,0,0,1.5,0V399.919a.764.764,0,0,0-.752-.752H297.43a.764.764,0,0,0-.752.752v12.962a.764.764,0,0,0,.752.752h12.812a.753.753,0,0,0,0-1.5Z" transform="translate(13361.232 6516.367)" fill="#e64b69"/>
    <path id="Path_6718" data-name="Path 6718" d="M113.79,404.88H126.6v12.962H113.79Z" transform="translate(13522.032 6511.421)" fill="#e64b69"/>
    <path id="Path_6719" data-name="Path 6719" d="M121.742,412.129H108.931l.752.752V399.919l-.752.752h12.812l-.752-.752v12.962a.752.752,0,0,0,1.5,0V399.919a.764.764,0,0,0-.752-.752H108.93a.764.764,0,0,0-.752.752v12.962a.764.764,0,0,0,.752.752h12.812a.753.753,0,0,0,0-1.5Z" transform="translate(13526.891 6516.367)" fill="#e64b69"/>
    <path id="Path_6720" data-name="Path 6720" d="M490.79,404.88H503.6v12.962H490.79Z" transform="translate(13190.716 6511.421)" fill="#e64b69"/>
    <path id="Path_6721" data-name="Path 6721" d="M498.742,412.129H485.931l.752.752V399.919l-.752.752h12.812l-.752-.752v12.962a.752.752,0,0,0,1.5,0V399.919a.764.764,0,0,0-.752-.752H485.93a.764.764,0,0,0-.752.752v12.962a.764.764,0,0,0,.752.752h12.812a.753.753,0,0,0,0-1.5Z" transform="translate(13195.574 6516.367)" fill="#e64b69"/>
  </g>
</svg>
