<svg xmlns="http://www.w3.org/2000/svg" width="200" height="200" viewBox="0 0 200 200">
  <g id="Group_347" data-name="Group 347" transform="translate(-10772.023 -6216)">
    <path id="Path_6694" data-name="Path 6694" d="M238.57,68.57a100,100,0,1,0,100,100A100.119,100.119,0,0,0,238.57,68.57ZM288.3,147.22l-57.565,54.595a8.728,8.728,0,0,1-5.676,2.162,7.359,7.359,0,0,1-5.676-2.433l-30.27-31.079a8.029,8.029,0,0,1,11.621-11.082l24.594,25.406L277.216,135.6A8.029,8.029,0,0,1,288.3,147.22Z" transform="translate(10633.453 6147.43)" fill="#38c67e"/>
  </g>
</svg>
