<svg xmlns="http://www.w3.org/2000/svg" width="48.281" height="56.266" viewBox="0 0 48.281 56.266">
  <g id="Group_376" data-name="Group 376" transform="matrix(0.891, 0.454, -0.454, 0.891, -10143.53, -12715.91)">
    <path id="Path_6701" data-name="Path 6701" d="M232.9,42.118a14.863,14.863,0,0,0-29.723,0,13.7,13.7,0,0,0,2.908,8.69,15.83,15.83,0,0,0,7.973,5.408l-.87,3.515a1.014,1.014,0,0,0,.229.915,1.223,1.223,0,0,0,.923.407h1.591a4.969,4.969,0,0,0,.627,4.086c1.544,2.6,1.444,3.282.293,5.3-1.765,3.1.194,4.695.278,4.761h0a1.291,1.291,0,0,0,.794.267,1.174,1.174,0,0,0,1.1-.69,1.014,1.014,0,0,0-.319-1.188c-.026-.025-.624-.631.239-2.149,1.59-2.8,1.529-4.235-.313-7.339a2.763,2.763,0,0,1-.55-1.505,2.724,2.724,0,0,1,.39-1.547h2.985a1.228,1.228,0,0,0,.9-.384,1.018,1.018,0,0,0,.262-.879l-.656-3.56a15.836,15.836,0,0,0,8.011-5.4,13.7,13.7,0,0,0,2.924-8.711Zm-12.84,16.77h-4.241l.55-2.221h0a14.322,14.322,0,0,0,3.284.008ZM218.042,54.6a12.483,12.483,0,1,1,12.5-12.483A12.506,12.506,0,0,1,218.042,54.6Z" transform="translate(14627.094 6687.53)"/>
    <path id="Path_6702" data-name="Path 6702" d="M267.69,87.262a9.627,9.627,0,0,0-9.267,9.931,1.181,1.181,0,1,0,2.362,0,7.268,7.268,0,0,1,6.9-7.569,1.181,1.181,0,1,0,0-2.362Z" transform="translate(14577.445 6633.792)"/>
  </g>
</svg>
