<svg xmlns="http://www.w3.org/2000/svg" width="60" height="46.006" viewBox="0 0 60 46.006">
  <g id="noun-payments-5361260" transform="translate(-99.16 -87.502)">
    <path id="Path_6723" data-name="Path 6723" d="M159.164,95.17V125.84a7.667,7.667,0,0,1-7.675,7.668h-44.65a7.667,7.667,0,0,1-7.675-7.668V95.17a7.667,7.667,0,0,1,7.675-7.668h44.65a7.667,7.667,0,0,1,7.675,7.668Zm-4.186,0a3.485,3.485,0,0,0-3.488-3.485h-44.65a3.485,3.485,0,0,0-3.488,3.485V125.84a3.485,3.485,0,0,0,3.488,3.485h44.65a3.485,3.485,0,0,0,3.488-3.485Z" transform="translate(-0.004)" fill="#797a81" fill-rule="evenodd"/>
    <path id="Path_6724" data-name="Path 6724" d="M157.067,215.83a2.091,2.091,0,1,1,0,4.182H101.253a2.091,2.091,0,1,1,0-4.182Z" transform="translate(0 -112.994)" fill="#797a81" fill-rule="evenodd"/>
    <path id="Path_6725" data-name="Path 6725" d="M176.83,355.83a2.091,2.091,0,1,1,0,4.182h-5.577a2.091,2.091,0,1,1,0-4.182Z" transform="translate(-61.637 -236.264)" fill="#797a81" fill-rule="evenodd"/>
    <path id="Path_6726" data-name="Path 6726" d="M281.83,355.83a2.091,2.091,0,1,1,0,4.182h-5.577a2.091,2.091,0,1,1,0-4.182Z" transform="translate(-154.068 -236.264)" fill="#797a81" fill-rule="evenodd"/>
  </g>
</svg>
