<svg xmlns="http://www.w3.org/2000/svg" width="70.776" height="74" viewBox="0 0 70.776 74">
  <g id="Group_486" data-name="Group 486" transform="translate(-2861.089 -4704)">
    <path id="Path_8077" data-name="Path 8077" d="M134.183,22.4a5.672,5.672,0,0,0-5.63,5.63v3.544a29.567,29.567,0,0,0-8.7,5.228l-3.193-1.76A5.683,5.683,0,0,0,109,37.232l-4.675,8.446a5.68,5.68,0,0,0,2.162,7.666l3.193,1.785a29.686,29.686,0,0,0-.428,4.273,29.444,29.444,0,0,0,.452,4.273l-3.217,1.785a5.651,5.651,0,0,0-2.162,7.641L109,81.547a5.691,5.691,0,0,0,7.666,2.212l3.217-1.785a29.535,29.535,0,0,0,8.672,5.228v3.57a5.672,5.672,0,0,0,5.63,5.63h9.652a5.672,5.672,0,0,0,5.63-5.63V87.2a29.549,29.549,0,0,0,8.672-5.228l3.217,1.785a5.692,5.692,0,0,0,7.666-2.212L173.7,73.1a5.651,5.651,0,0,0-2.162-7.641l-3.217-1.785a29.36,29.36,0,0,0,.452-4.273,29.6,29.6,0,0,0-.428-4.273l3.193-1.785a5.681,5.681,0,0,0,2.162-7.666l-4.675-8.446a5.684,5.684,0,0,0-7.666-2.187l-3.193,1.76a29.555,29.555,0,0,0-8.7-5.228V28.032a5.672,5.672,0,0,0-5.63-5.63h-9.652Zm0,4.826h9.652a.755.755,0,0,1,.8.8v5.228a2.482,2.482,0,0,0,1.709,2.288,24.849,24.849,0,0,1,9.929,5.882,2.483,2.483,0,0,0,2.865.377l4.575-2.539a.738.738,0,0,1,1.081.3l4.675,8.446a.76.76,0,0,1-.3,1.106L164.6,51.661a2.481,2.481,0,0,0-1.182,2.589,25.287,25.287,0,0,1,0,10.28,2.482,2.482,0,0,0,1.182,2.614l4.575,2.539a.734.734,0,0,1,.3,1.081L164.8,79.209a.746.746,0,0,1-1.081.327L159.142,77a2.483,2.483,0,0,0-2.865.352,24.848,24.848,0,0,1-9.929,5.882,2.481,2.481,0,0,0-1.709,2.313v5.228a.755.755,0,0,1-.8.8h-9.652a.755.755,0,0,1-.8-.8V85.543a2.485,2.485,0,0,0-1.709-2.313,24.855,24.855,0,0,1-9.929-5.882A2.483,2.483,0,0,0,118.875,77L114.3,79.536a.746.746,0,0,1-1.081-.327l-4.675-8.446a.734.734,0,0,1,.3-1.081l4.575-2.539A2.482,2.482,0,0,0,114.6,64.53a25.286,25.286,0,0,1,0-10.28,2.48,2.48,0,0,0-1.182-2.589l-4.575-2.539a.761.761,0,0,1-.3-1.106l4.675-8.446a.738.738,0,0,1,1.081-.3l4.575,2.539a2.483,2.483,0,0,0,2.865-.377,24.848,24.848,0,0,1,9.929-5.882,2.481,2.481,0,0,0,1.709-2.288V28.033a.755.755,0,0,1,.8-.8Zm4.826,14.478a17.7,17.7,0,1,0,17.7,17.7,17.732,17.732,0,0,0-17.7-17.7Zm0,4.826a12.87,12.87,0,1,1-12.87,12.87A12.834,12.834,0,0,1,139.009,46.533Z" transform="translate(2757.469 4681.598)" fill="#fff"/>
  </g>
</svg>
